<svg width="633" height="268" viewBox="0 0 633 268" fill="none" xmlns="http://www.w3.org/2000/svg">
<path fill-rule="evenodd" clip-rule="evenodd" d="M253.519 137.432C246.908 137.432 241.548 142.791 241.548 149.403C241.548 156.015 246.908 161.375 253.519 161.375C260.131 161.375 265.491 156.015 265.491 149.403C265.491 142.791 260.131 137.432 253.519 137.432ZM231.374 141.081C234.741 132.125 243.386 125.752 253.519 125.752C266.581 125.752 277.17 136.341 277.17 149.403C277.17 162.465 266.581 173.054 253.519 173.054C243.386 173.054 234.741 166.681 231.374 157.725H167.237V221.862C176.193 225.229 182.566 233.874 182.566 244.007C182.566 257.069 171.977 267.658 158.915 267.658C145.853 267.658 135.264 257.069 135.264 244.007C135.264 233.874 141.637 225.229 150.594 221.862V149.403C150.594 144.807 154.319 141.081 158.915 141.081H231.374ZM158.915 232.036C152.304 232.036 146.944 237.395 146.944 244.007C146.944 250.619 152.304 255.979 158.915 255.979C165.527 255.979 170.887 250.619 170.887 244.007C170.887 237.395 165.527 232.036 158.915 232.036Z" fill="#3086DD"/>
<circle cx="64.3113" cy="118.744" r="17.8113" transform="rotate(-180 64.3113 118.744)" stroke="#1AC0C6" stroke-width="11.6795"/>
<circle cx="158.915" cy="24.1403" r="17.8113" transform="rotate(-180 158.915 24.1403)" stroke="#1AC0C6" stroke-width="11.6795"/>
<path d="M85.1884 118.744L158.915 118.744L158.915 45.3095" stroke="#1AC0C6" stroke-width="16.6433" stroke-linecap="round" stroke-linejoin="round"/>
<path d="M316.335 162.994V110.63H350.392V118.582H325.821V132.798H348.628V140.749H325.821V155.042H350.596V162.994H316.335ZM398.584 133.002V140.621H375.011V133.002H398.584ZM423.849 110.63H435.457L451.002 148.573H451.616L467.161 110.63H478.769V162.994H469.667V127.019H469.181L454.709 162.84H447.908L433.437 126.942H432.951V162.994H423.849V110.63ZM510.943 162.994H500.818L519.253 110.63H530.963L549.423 162.994H539.298L525.312 121.369H524.903L510.943 162.994ZM511.275 142.462H538.889V150.082H511.275V142.462ZM580.926 110.63V162.994H571.44V110.63H580.926Z" fill="#161616"/>
</svg>
