<svg width="633" height="376" viewBox="0 0 633 376" fill="none" xmlns="http://www.w3.org/2000/svg">
<path fill-rule="evenodd" clip-rule="evenodd" d="M408.019 137.102C401.408 137.102 396.048 142.462 396.048 149.074C396.048 155.686 401.408 161.045 408.019 161.045C414.631 161.045 419.991 155.686 419.991 149.074C419.991 142.462 414.631 137.102 408.019 137.102ZM385.874 140.752C389.241 131.796 397.886 125.423 408.019 125.423C421.081 125.423 431.67 136.012 431.67 149.074C431.67 162.136 421.081 172.725 408.019 172.725C397.886 172.725 389.241 166.352 385.874 157.396H321.737V221.533C330.693 224.9 337.066 233.545 337.066 243.678C337.066 256.74 326.477 267.329 313.415 267.329C300.353 267.329 289.764 256.74 289.764 243.678C289.764 233.545 296.137 224.9 305.094 221.533V149.074C305.094 144.478 308.819 140.752 313.415 140.752H385.874ZM313.415 231.707C306.804 231.707 301.444 237.066 301.444 243.678C301.444 250.29 306.804 255.65 313.415 255.65C320.027 255.65 325.387 250.29 325.387 243.678C325.387 237.066 320.027 231.707 313.415 231.707Z" fill="#3086DD"/>
<circle cx="218.811" cy="118.415" r="17.8113" transform="rotate(-180 218.811 118.415)" stroke="#1AC0C6" stroke-width="11.6795"/>
<circle cx="313.415" cy="23.8112" r="17.8113" transform="rotate(-180 313.415 23.8112)" stroke="#1AC0C6" stroke-width="11.6795"/>
<path d="M239.688 118.415L313.415 118.415L313.415 44.9804" stroke="#1AC0C6" stroke-width="16.6433" stroke-linecap="round" stroke-linejoin="round"/>
<path d="M184 364.329V311.965H218.057V319.917H193.486V334.133H216.293V342.085H193.486V356.377H218.261V364.329H184ZM266.249 334.338V341.957H242.675V334.338H266.249ZM291.513 311.965H303.121L318.667 349.909H319.28L334.826 311.965H346.434V364.329H337.332V328.355H336.846L322.374 364.176H315.573L301.101 328.278H300.616V364.329H291.513V311.965ZM378.608 364.329H368.483L386.917 311.965H398.628L417.088 364.329H406.963L392.977 322.704H392.568L378.608 364.329ZM378.94 343.798H406.554V351.417H378.94V343.798ZM448.591 311.965V364.329H439.105V311.965H448.591Z" fill="#161616"/>
</svg>
