<svg width="91" height="37" viewBox="0 0 91 37" fill="none" xmlns="http://www.w3.org/2000/svg">
<path fill-rule="evenodd" clip-rule="evenodd" d="M29.5664 19.06C28.6607 19.06 27.9264 19.7942 27.9264 20.7C27.9264 21.6057 28.6607 22.34 29.5664 22.34C30.4722 22.34 31.2064 21.6057 31.2064 20.7C31.2064 19.7942 30.4722 19.06 29.5664 19.06ZM26.5327 19.56C26.9939 18.333 28.1782 17.46 29.5664 17.46C31.3558 17.46 32.8064 18.9106 32.8064 20.7C32.8064 22.4894 31.3558 23.94 29.5664 23.94C28.1782 23.94 26.9939 23.0669 26.5327 21.84H17.7464V30.6262C18.9734 31.0875 19.8464 32.2717 19.8464 33.6599C19.8464 35.4493 18.3958 36.8999 16.6064 36.8999C14.817 36.8999 13.3665 35.4493 13.3665 33.6599C13.3665 32.2717 14.2395 31.0875 15.4665 30.6262V20.7C15.4665 20.0704 15.9768 19.56 16.6064 19.56H26.5327ZM16.6064 32.0199C15.7007 32.0199 14.9664 32.7542 14.9664 33.6599C14.9664 34.5657 15.7007 35.2999 16.6064 35.2999C17.5122 35.2999 18.2464 34.5657 18.2464 33.6599C18.2464 32.7542 17.5122 32.0199 16.6064 32.0199Z" fill="#3086DD"/>
<circle cx="3.64644" cy="16.5" r="2.43999" transform="rotate(-180 3.64644 16.5)" stroke="#1AC0C6" stroke-width="1.59999"/>
<circle cx="16.6064" cy="3.54005" r="2.43999" transform="rotate(-180 16.6064 3.54005)" stroke="#1AC0C6" stroke-width="1.59999"/>
<path d="M6.50636 16.5L16.6063 16.5L16.6063 6.44007" stroke="#1AC0C6" stroke-width="2.27999" stroke-linecap="round" stroke-linejoin="round"/>
<path d="M38.4074 23.5V13.9355H41.9941C42.7288 13.9355 43.3453 14.0725 43.8434 14.3465C44.3447 14.6205 44.723 14.9972 44.9783 15.4767C45.2367 15.953 45.3659 16.4948 45.3659 17.1019C45.3659 17.7152 45.2367 18.2601 44.9783 18.7364C44.7199 19.2128 44.3385 19.588 43.8341 19.8619C43.3297 20.1328 42.7086 20.2682 41.9707 20.2682H39.5936V18.8438H41.7372C42.1668 18.8438 42.5187 18.7691 42.7926 18.6197C43.0666 18.4702 43.269 18.2647 43.3998 18.0032C43.5336 17.7417 43.6006 17.4412 43.6006 17.1019C43.6006 16.7625 43.5336 16.4636 43.3998 16.2052C43.269 15.9468 43.0651 15.746 42.788 15.6027C42.514 15.4564 42.1606 15.3833 41.7279 15.3833H40.14V23.5H38.4074ZM49.7949 23.5H47.9455L51.3127 13.9355H53.4516L56.8235 23.5H54.9741L52.4195 15.897H52.3448L49.7949 23.5ZM49.8556 19.7499H54.8994V21.1416H49.8556V19.7499ZM63.7277 23.6401C63.0085 23.6401 62.3874 23.4907 61.8643 23.1918C61.3444 22.8898 60.9443 22.4632 60.6641 21.9121C60.3839 21.358 60.2437 20.7057 60.2437 19.9553C60.2437 19.2175 60.3839 18.5699 60.6641 18.0126C60.9474 17.4521 61.3428 17.0163 61.8503 16.7049C62.3578 16.3905 62.954 16.2332 63.639 16.2332C64.0811 16.2332 64.4983 16.3048 64.8906 16.448C65.286 16.5882 65.6347 16.8061 65.9367 17.1019C66.2418 17.3977 66.4815 17.7744 66.6559 18.2321C66.8302 18.6866 66.9174 19.2284 66.9174 19.8573V20.3757H61.0377V19.2361H65.2969C65.2938 18.9123 65.2237 18.6243 65.0867 18.3722C64.9497 18.1169 64.7582 17.916 64.5123 17.7697C64.2694 17.6234 63.9861 17.5502 63.6623 17.5502C63.3167 17.5502 63.0132 17.6343 62.7516 17.8024C62.4901 17.9674 62.2862 18.1854 62.1398 18.4562C61.9966 18.724 61.9235 19.0182 61.9203 19.3389V20.3336C61.9203 20.7508 61.9966 21.1089 62.1492 21.4078C62.3017 21.7035 62.515 21.9308 62.789 22.0896C63.063 22.2453 63.3837 22.3231 63.751 22.3231C63.997 22.3231 64.2196 22.2889 64.4189 22.2204C64.6181 22.1488 64.7909 22.0445 64.9373 21.9075C65.0836 21.7705 65.1941 21.6008 65.2688 21.3984L66.8474 21.5759C66.7477 21.9931 66.5578 22.3574 66.2776 22.6687C66.0005 22.9769 65.6456 23.2167 65.2128 23.3879C64.78 23.556 64.285 23.6401 63.7277 23.6401ZM76.382 16.5648C76.3384 16.1569 76.1547 15.8394 75.8309 15.6121C75.5103 15.3848 75.0931 15.2712 74.5793 15.2712C74.2182 15.2712 73.9084 15.3257 73.65 15.4346C73.3916 15.5436 73.1939 15.6915 73.0569 15.8783C72.9199 16.0651 72.8498 16.2784 72.8467 16.5181C72.8467 16.7174 72.8919 16.8902 72.9821 17.0365C73.0755 17.1828 73.2016 17.3074 73.3604 17.4101C73.5192 17.5097 73.6951 17.5938 73.8882 17.6623C74.0812 17.7308 74.2758 17.7884 74.4719 17.8351L75.3686 18.0593C75.7298 18.1433 76.0769 18.257 76.41 18.4002C76.7463 18.5434 77.0467 18.724 77.3114 18.9419C77.5791 19.1599 77.7909 19.4229 77.9465 19.7312C78.1022 20.0394 78.18 20.4006 78.18 20.8147C78.18 21.3751 78.0368 21.8686 77.7504 22.2951C77.4639 22.7185 77.0499 23.0501 76.5081 23.2898C75.9695 23.5265 75.3172 23.6448 74.5513 23.6448C73.8072 23.6448 73.1612 23.5296 72.6132 23.2992C72.0683 23.0688 71.6418 22.7325 71.3336 22.2904C71.0285 21.8483 70.8634 21.3097 70.8385 20.6745H72.5431C72.5681 21.0077 72.6708 21.2848 72.8514 21.5058C73.032 21.7269 73.267 21.8919 73.5566 22.0009C73.8492 22.1098 74.1761 22.1643 74.5373 22.1643C74.914 22.1643 75.2441 22.1083 75.5274 21.9962C75.8138 21.881 76.038 21.7222 76.1999 21.5198C76.3618 21.3144 76.4443 21.0746 76.4474 20.8006C76.4443 20.5516 76.3711 20.3461 76.2279 20.1842C76.0847 20.0192 75.8839 19.8822 75.6255 19.7732C75.3702 19.6611 75.0713 19.5615 74.7288 19.4743L73.6406 19.1941C72.8529 18.9917 72.2302 18.6851 71.7726 18.2741C71.318 17.86 71.0907 17.3105 71.0907 16.6255C71.0907 16.062 71.2433 15.5685 71.5484 15.1451C71.8566 14.7216 72.2754 14.3932 72.8047 14.1597C73.334 13.923 73.9333 13.8047 74.6027 13.8047C75.2814 13.8047 75.8761 13.923 76.3867 14.1597C76.9004 14.3932 77.3036 14.7185 77.5963 15.1357C77.8889 15.5498 78.0399 16.0262 78.0493 16.5648H76.382ZM85.7275 23.5H82.4864V13.9355H85.7929C86.7425 13.9355 87.5582 14.127 88.2401 14.5099C88.925 14.8898 89.4512 15.4362 89.8186 16.1492C90.186 16.8621 90.3697 17.7152 90.3697 18.7084C90.3697 19.7047 90.1844 20.5609 89.8139 21.277C89.4465 21.9931 88.9157 22.5426 88.2214 22.9256C87.5302 23.3085 86.6989 23.5 85.7275 23.5ZM84.2191 22.0009H85.6435C86.3098 22.0009 86.8655 21.8795 87.3107 21.6366C87.7559 21.3906 88.0906 21.0248 88.3148 20.5391C88.539 20.0503 88.6511 19.4401 88.6511 18.7084C88.6511 17.9768 88.539 17.3696 88.3148 16.887C88.0906 16.4013 87.7591 16.0386 87.3201 15.7989C86.8842 15.556 86.3424 15.4346 85.6948 15.4346H84.2191V22.0009Z" fill="#161616"/>
</svg>
