<svg width="633" height="376" viewBox="0 0 633 376" fill="none" xmlns="http://www.w3.org/2000/svg">
<path fill-rule="evenodd" clip-rule="evenodd" d="M408.019 137.102C401.408 137.102 396.048 142.462 396.048 149.074C396.048 155.686 401.408 161.045 408.019 161.045C414.631 161.045 419.991 155.686 419.991 149.074C419.991 142.462 414.631 137.102 408.019 137.102ZM385.874 140.752C389.241 131.796 397.886 125.423 408.019 125.423C421.081 125.423 431.67 136.012 431.67 149.074C431.67 162.136 421.081 172.725 408.019 172.725C397.886 172.725 389.241 166.352 385.874 157.396H321.737V221.533C330.693 224.9 337.066 233.545 337.066 243.678C337.066 256.74 326.477 267.329 313.415 267.329C300.353 267.329 289.764 256.74 289.764 243.678C289.764 233.545 296.137 224.9 305.094 221.533V149.074C305.094 144.478 308.819 140.752 313.415 140.752H385.874ZM313.415 231.707C306.804 231.707 301.444 237.066 301.444 243.678C301.444 250.29 306.804 255.65 313.415 255.65C320.027 255.65 325.387 250.29 325.387 243.678C325.387 237.066 320.027 231.707 313.415 231.707Z" fill="#3086DD"/>
<circle cx="218.811" cy="118.415" r="17.8113" transform="rotate(-180 218.811 118.415)" stroke="#1AC0C6" stroke-width="11.6795"/>
<circle cx="313.415" cy="23.8112" r="17.8113" transform="rotate(-180 313.415 23.8112)" stroke="#1AC0C6" stroke-width="11.6795"/>
<path d="M239.688 118.415L313.415 118.415L313.415 44.9803" stroke="#1AC0C6" stroke-width="16.6433" stroke-linecap="round" stroke-linejoin="round"/>
<path d="M174.5 364.329V311.965H194.136C198.159 311.965 201.534 312.715 204.261 314.215C207.006 315.715 209.077 317.778 210.474 320.403C211.889 323.011 212.597 325.977 212.597 329.301C212.597 332.659 211.889 335.642 210.474 338.25C209.06 340.858 206.972 342.911 204.21 344.411C201.449 345.894 198.048 346.636 194.009 346.636H180.994V338.838H192.73C195.082 338.838 197.009 338.429 198.509 337.61C200.009 336.792 201.116 335.667 201.832 334.235C202.565 332.804 202.932 331.159 202.932 329.301C202.932 327.443 202.565 325.806 201.832 324.392C201.116 322.977 200 321.877 198.483 321.093C196.983 320.292 195.048 319.892 192.679 319.892H183.986V364.329H174.5ZM236.844 364.329H226.719L245.154 311.965H256.864L275.325 364.329H265.2L251.214 322.704H250.805L236.844 364.329ZM237.177 343.798H264.79V351.417H237.177V343.798ZM313.123 365.096C309.186 365.096 305.785 364.278 302.922 362.642C300.075 360.988 297.885 358.653 296.351 355.636C294.817 352.602 294.05 349.031 294.05 344.923C294.05 340.883 294.817 337.338 296.351 334.286C297.902 331.218 300.067 328.832 302.845 327.127C305.623 325.406 308.888 324.545 312.638 324.545C315.058 324.545 317.342 324.937 319.49 325.721C321.655 326.488 323.564 327.681 325.217 329.301C326.888 330.92 328.2 332.983 329.155 335.488C330.109 337.977 330.587 340.943 330.587 344.386V347.224H298.396V340.985H321.714C321.697 339.213 321.314 337.636 320.564 336.255C319.814 334.858 318.766 333.758 317.419 332.957C316.089 332.156 314.538 331.755 312.766 331.755C310.873 331.755 309.212 332.215 307.78 333.136C306.348 334.039 305.231 335.233 304.43 336.715C303.646 338.181 303.246 339.792 303.229 341.548V346.994C303.229 349.278 303.646 351.238 304.481 352.875C305.317 354.494 306.484 355.738 307.984 356.608C309.484 357.46 311.24 357.886 313.251 357.886C314.598 357.886 315.817 357.698 316.908 357.323C317.998 356.931 318.945 356.36 319.746 355.61C320.547 354.86 321.152 353.931 321.561 352.823L330.203 353.795C329.658 356.079 328.618 358.073 327.084 359.778C325.567 361.465 323.623 362.778 321.254 363.715C318.885 364.636 316.175 365.096 313.123 365.096ZM382.403 326.36C382.165 324.127 381.159 322.389 379.386 321.144C377.631 319.9 375.346 319.278 372.534 319.278C370.557 319.278 368.861 319.576 367.446 320.173C366.031 320.769 364.949 321.579 364.199 322.602C363.449 323.625 363.065 324.792 363.048 326.105C363.048 327.196 363.295 328.142 363.79 328.943C364.301 329.744 364.991 330.426 365.861 330.988C366.73 331.534 367.693 331.994 368.75 332.369C369.807 332.744 370.872 333.059 371.946 333.315L376.855 334.542C378.832 335.002 380.733 335.625 382.557 336.409C384.398 337.193 386.043 338.181 387.491 339.375C388.957 340.568 390.116 342.008 390.969 343.696C391.821 345.383 392.247 347.36 392.247 349.627C392.247 352.696 391.463 355.397 389.895 357.733C388.327 360.051 386.06 361.866 383.094 363.179C380.145 364.474 376.574 365.122 372.381 365.122C368.307 365.122 364.77 364.491 361.77 363.23C358.787 361.968 356.452 360.127 354.764 357.707C353.094 355.286 352.19 352.338 352.054 348.86H361.386C361.523 350.684 362.085 352.201 363.074 353.411C364.062 354.622 365.349 355.525 366.935 356.122C368.537 356.718 370.327 357.017 372.304 357.017C374.366 357.017 376.173 356.71 377.724 356.096C379.293 355.465 380.52 354.596 381.406 353.488C382.293 352.363 382.744 351.051 382.761 349.551C382.744 348.187 382.344 347.062 381.56 346.176C380.775 345.272 379.676 344.522 378.261 343.926C376.864 343.312 375.227 342.767 373.352 342.289L367.395 340.755C363.082 339.647 359.673 337.968 357.168 335.718C354.679 333.451 353.435 330.443 353.435 326.693C353.435 323.608 354.27 320.906 355.94 318.588C357.628 316.269 359.92 314.471 362.818 313.193C365.716 311.897 368.997 311.25 372.662 311.25C376.378 311.25 379.633 311.897 382.429 313.193C385.241 314.471 387.449 316.252 389.051 318.536C390.653 320.804 391.48 323.411 391.531 326.36H382.403ZM433.568 364.329H415.824V311.965H433.926C439.125 311.965 443.591 313.014 447.324 315.11C451.074 317.19 453.954 320.181 455.966 324.085C457.977 327.988 458.983 332.659 458.983 338.096C458.983 343.551 457.969 348.238 455.94 352.159C453.929 356.079 451.023 359.088 447.221 361.184C443.437 363.281 438.886 364.329 433.568 364.329ZM425.31 356.122H433.108C436.756 356.122 439.798 355.457 442.236 354.127C444.673 352.781 446.506 350.778 447.733 348.119C448.96 345.443 449.574 342.102 449.574 338.096C449.574 334.09 448.96 330.767 447.733 328.125C446.506 325.465 444.69 323.48 442.287 322.167C439.9 320.838 436.935 320.173 433.389 320.173H425.31V356.122Z" fill="#161616"/>
</svg>
